<?xml version="1.0" encoding="UTF-8"?>
<svg version="1.1" xmlns="http://www.w3.org/2000/svg" width="496" height="503">
<path d="M0 0 C0.99 0.33 1.98 0.66 3 1 C5.25575456 14.98060099 7.47589998 28.96572095 9.60449219 42.96630859 C10.544107 49.12502075 11.53609828 55.27185791 12.58569336 61.4128418 C13.13428617 64.8385566 13.50328517 67.54890171 13 71 C10.625 73.4375 10.625 73.4375 8 75 C7.34 75 6.68 75 6 75 C6.33 76.98 6.66 78.96 7 81 C10.97754128 81.73334429 10.97754128 81.73334429 15 82 C15.28875 81.38125 15.5775 80.7625 15.875 80.125 C17 78 17 78 19 76 C20.95079041 75.90461731 20.95079041 75.90461731 23.36694336 76.12426758 C24.27226303 76.20127396 25.1775827 76.27828033 26.1103363 76.35762024 C27.58519249 76.49964119 27.58519249 76.49964119 29.08984375 76.64453125 C30.10413956 76.73377365 31.11843536 76.82301605 32.16346741 76.91496277 C35.42247149 77.20407591 38.67989189 77.5080978 41.9375 77.8125 C44.09952138 78.00684082 46.26163017 78.20021176 48.42382812 78.39257812 C53.36442535 78.83430146 58.30395658 79.28648499 63.24299622 79.74526978 C66.03290424 80.00304015 68.82328508 80.2551458 71.61376953 80.5065918 C79.17226805 81.19280406 86.72222319 81.96081749 94.27270508 82.72949219 C96.0616402 82.91109 97.85070532 83.09141128 99.63989258 83.27050781 C102.24850449 83.53167766 104.8567044 83.79665742 107.46484375 84.0625 C108.66173073 84.18129517 108.66173073 84.18129517 109.88279724 84.30249023 C113.33848771 84.65863285 116.64558824 85.10178839 120 86 C118.55922954 89.36179774 116.75249979 91.59156268 114 94 C113.34 94 112.68 94 112 94 C112 94.66 112 95.32 112 96 C110.49609375 97.48046875 110.49609375 97.48046875 108.4375 99.1875 C105.6746132 101.53279758 103.03320243 103.90829405 100.5 106.5 C98.20984863 108.83123032 95.86544399 111.00968564 93.375 113.125 C88.78057274 117.05920444 84.58974936 121.38385576 80.39208984 125.73291016 C78.96418301 127.19153384 77.48584626 128.60044226 76 130 C75.34 130 74.68 130 74 130 C74 130.66 74 131.32 74 132 C72.53125 133.4453125 72.53125 133.4453125 70.5 135.125 C66.09475988 138.8615876 62.03400765 142.86943366 58 147 C53.2265625 145.140625 53.2265625 145.140625 51.1875 143.875 C47.886133 142.5544532 44.49818403 142.36458767 41 143 C38.77886735 144.44108696 38.77886735 144.44108696 37 146 C38.16015625 146.60521484 38.16015625 146.60521484 39.34375 147.22265625 C48.93354082 152.81274471 52.69558185 159.04241088 57 169 C57.44601562 170.02609375 57.89203125 171.0521875 58.3515625 172.109375 C59.16447728 174.04988126 59.96249601 175.99668973 60.74609375 177.94921875 C63.98019156 185.81784924 67.77064704 193.46366819 71.47265625 201.12109375 C77.1168819 212.81329408 82.54458549 224.57773951 87.77319336 236.4621582 C91.00661048 243.80616842 94.35275651 251.07525433 97.890625 258.27734375 C99 261 99 261 99 265 C87.34051352 262.51110368 76.1876288 258.44418845 64.9375 254.5625 C62.96564213 253.88693958 60.99363785 253.21180635 59.02148438 252.53710938 C43.85394581 247.33850218 43.85394581 247.33850218 36.5625 244.65234375 C32.7694737 243.2557878 28.96579494 242.05980372 25.0625 241 C16.55692894 238.62440239 8.2262127 235.8782553 -0.015625 232.7109375 C-2.27929073 231.89993915 -4.56495761 231.22968616 -6.875 230.5625 C-10.44093524 229.50429356 -13.95143618 228.36152815 -17.4375 227.0625 C-18.24058594 226.76472656 -19.04367187 226.46695313 -19.87109375 226.16015625 C-25.22123791 223.2445731 -27.10202877 216.83364429 -29.59765625 211.58203125 C-30.73985523 208.89151229 -30.73985523 208.89151229 -33 208 C-33 207.34 -33 206.68 -33 206 C-35.90600261 204.74335022 -37.79604584 204 -41 204 C-45.66728636 210.73628959 -44.01654195 218.7067707 -43.53125 226.5234375 C-43.26141185 234.94624259 -43.26141185 234.94624259 -45.50585938 238.1484375 C-49.86825117 242 -49.86825117 242 -53 242 C-53 242.66 -53 243.32 -53 244 C-53.66 244 -54.32 244 -55 244 C-55 244.66 -55 245.32 -55 246 C-56.22265625 247.234375 -56.22265625 247.234375 -58.0625 248.75 C-61.05623776 251.27984326 -63.95597242 253.87939492 -66.80078125 256.57421875 C-67.80516235 257.52506348 -67.80516235 257.52506348 -68.82983398 258.49511719 C-70.18818265 259.78519979 -71.54319778 261.07880187 -72.89477539 262.37597656 C-73.52504639 262.97249023 -74.15531738 263.56900391 -74.8046875 264.18359375 C-75.37171387 264.72556396 -75.93874023 265.26753418 -76.52294922 265.82592773 C-78 267 -78 267 -80 267 C-80 267.66 -80 268.32 -80 269 C-81.4609375 270.5078125 -81.4609375 270.5078125 -83.375 272.125 C-84.00148437 272.66382813 -84.62796875 273.20265625 -85.2734375 273.7578125 C-87 275 -87 275 -89 275 C-89.33 275.99 -89.66 276.98 -90 278 C-91.55859375 279.60546875 -91.55859375 279.60546875 -93.4375 281.1875 C-94.05496094 281.71730469 -94.67242187 282.24710937 -95.30859375 282.79296875 C-97 284 -97 284 -99 284 C-99 284.66 -99 285.32 -99 286 C-99.66 286 -100.32 286 -101 286 C-101 286.66 -101 287.32 -101 288 C-101.66 288 -102.32 288 -103 288 C-103 288.66 -103 289.32 -103 290 C-104.328125 291.33984375 -104.328125 291.33984375 -106.25 292.9375 C-115.33688008 300.67169215 -123.98180838 308.9104662 -132.68896484 317.06616211 C-136.55633712 320.6795652 -140.46855989 324.22373895 -144.48828125 327.66796875 C-145.8424103 328.86114189 -147.11548899 330.14484396 -148.375 331.4375 C-150 333 -150 333 -152 333 C-152 333.66 -152 334.32 -152 335 C-153.4609375 336.5078125 -153.4609375 336.5078125 -155.375 338.125 C-156.31472656 338.93324219 -156.31472656 338.93324219 -157.2734375 339.7578125 C-159 341 -159 341 -161 341 C-161.66 342.32 -162.32 343.64 -163 345 C-163.66 345 -164.32 345 -165 345 C-165 345.66 -165 346.32 -165 347 C-166.6796875 348.7265625 -166.6796875 348.7265625 -168.875 350.625 C-169.95394531 351.57246094 -169.95394531 351.57246094 -171.0546875 352.5390625 C-173 354 -173 354 -175 354 C-175 354.66 -175 355.32 -175 356 C-175.66 356 -176.32 356 -177 356 C-177.27602171 348.73142841 -176.84675623 341.64531916 -176.140625 334.41796875 C-175.30068925 325.50158542 -174.54913198 316.58097058 -173.8515625 307.65234375 C-173.70387672 305.76482391 -173.70387672 305.76482391 -173.5532074 303.83917236 C-173.34871567 301.22068455 -173.14451242 298.60217419 -172.94058228 295.98364258 C-171.18691561 273.4787873 -169.41747365 250.97474306 -167.29589844 228.50097656 C-166.60432903 221.13872719 -165.94196691 213.81023354 -165.66015625 206.41796875 C-165.06567575 192.33667234 -165.06567575 192.33667234 -161.7265625 188.1484375 C-159 186.0625 -159 186.0625 -156.2890625 184.50390625 C-153.55769392 182.70940642 -153.09567021 181.63545321 -152.375 178.5 C-152.189375 176.7675 -152.189375 176.7675 -152 175 C-158.92022109 174.56369885 -162.60369451 174.35318139 -168 179 C-173.69633366 179.11625171 -178.43384768 176.6804187 -183.59375 174.4453125 C-187.17392809 172.92620024 -190.79160852 171.53813396 -194.4375 170.1875 C-195.80343345 169.67981673 -197.16931709 169.17199941 -198.53515625 168.6640625 C-199.61047607 168.26429199 -199.61047607 168.26429199 -200.70751953 167.85644531 C-204.93682657 166.27642305 -209.15597232 164.66973032 -213.375 163.0625 C-214.26396973 162.72387939 -215.15293945 162.38525879 -216.06884766 162.03637695 C-222.56204018 159.55847833 -229.04031635 157.04369589 -235.51391602 154.51513672 C-241.25372099 152.27801179 -247.01441721 150.10010709 -252.78833008 147.95263672 C-256.21084179 146.6787043 -259.61593788 145.37296235 -263 144 C-263 143.01 -263 142.02 -263 141 C-260.09399739 139.74335022 -258.20395416 139 -255 139 C-255 138.34 -255 137.68 -255 137 C-254.38181396 136.73372803 -253.76362793 136.46745605 -253.12670898 136.19311523 C-242.33322792 131.53814479 -231.56133423 126.86734193 -220.93359375 121.84375 C-215.98040314 119.50854411 -210.98802901 117.25954172 -206 115 C-199.71698126 112.15077367 -193.43864803 109.29356265 -187.1875 106.375 C-186.02476562 105.83488281 -184.86203125 105.29476562 -183.6640625 104.73828125 C-180.94963439 103.46463397 -178.2658841 102.13757263 -175.5859375 100.79296875 C-174.8328833 100.42187988 -174.0798291 100.05079102 -173.30395508 99.66845703 C-171.85718285 98.95460471 -170.41634492 98.22853561 -168.9831543 97.48779297 C-162.81290251 94.46822834 -157.68602345 94.27457459 -151 96 C-148.66699067 96.03888349 -146.33290199 96.0448635 -144 96 C-143.505 94.515 -143.505 94.515 -143 93 C-143.85464844 92.50628906 -144.70929688 92.01257813 -145.58984375 91.50390625 C-146.69457031 90.86324219 -147.79929687 90.22257812 -148.9375 89.5625 C-150.03964844 88.92441406 -151.14179688 88.28632813 -152.27734375 87.62890625 C-155 86 -155 86 -156 85 C-156.02920715 82.71615294 -155.98615994 80.43133312 -155.9140625 78.1484375 C-155.89282318 77.45618073 -155.87158386 76.76392395 -155.84970093 76.0506897 C-155.8033299 74.5794483 -155.75439327 73.10828592 -155.703125 71.63720703 C-155.62605099 69.40543277 -155.55846355 67.17352423 -155.4921875 64.94140625 C-155.44588622 63.51039799 -155.3990282 62.07940761 -155.3515625 60.6484375 C-155.30854004 59.35083496 -155.26551758 58.05323242 -155.22119141 56.71630859 C-155.00563681 53.0947058 -154.53173857 49.5867469 -154 46 C-153.87812661 44.28953213 -153.78223649 42.57690983 -153.71875 40.86328125 C-153.68136719 39.95642578 -153.64398438 39.04957031 -153.60546875 38.11523438 C-153.53471589 36.23504256 -153.46440883 34.35483392 -153.39453125 32.47460938 C-153.35714844 31.57162109 -153.31976563 30.66863281 -153.28125 29.73828125 C-153.25095703 28.92399658 -153.22066406 28.10971191 -153.18945312 27.27075195 C-153.00628575 25.07533985 -152.55835347 23.12525822 -152 21 C-145.69157507 22.31934984 -139.60699365 23.95301669 -133.4765625 25.93359375 C-132.17457413 26.35149925 -132.17457413 26.35149925 -130.84628296 26.77784729 C-129.02880785 27.36311697 -127.21205158 27.95062328 -125.39599609 28.5402832 C-122.61466848 29.44084523 -119.82901322 30.327045 -117.04296875 31.21289062 C-115.27055141 31.78558656 -113.49840586 32.35912446 -111.7265625 32.93359375 C-110.89532867 33.19619492 -110.06409485 33.45879608 -109.20767212 33.72935486 C-108.43611786 33.98294266 -107.6645636 34.23653046 -106.86962891 34.49780273 C-106.19284088 34.71605209 -105.51605286 34.93430145 -104.8187561 35.15916443 C-102.74176949 36.11938346 -101.51637749 37.30528899 -100 39 C-99.27296875 37.69289063 -99.27296875 37.69289063 -98.53125 36.359375 C-94.01983516 28.31916234 -89.23238146 20.59808585 -84 13 C-84.65871094 13.62132813 -85.31742188 14.24265625 -85.99609375 14.8828125 C-89.55684317 17.39246944 -92.8707956 18.09870645 -97.0625 18.875 C-102.74314302 20.03858606 -107.48786416 21.50038898 -112.625 24.3125 C-116.10168039 26.18092007 -117.68211698 26.9892243 -121.6875 27.125 C-125.92990114 25.68418452 -129.97417058 23.96270595 -134 22 C-124.01667147 10.02000576 -102.82434375 8.65708949 -88.1640625 7.30859375 C-82.76183139 6.87577768 -77.41508864 6.75209895 -72 7 C-71.06800781 7.04125 -70.13601563 7.0825 -69.17578125 7.125 C-63.06272855 7.53424202 -56.52978941 8.19723003 -51 11 C-50.01 12.98 -50.01 12.98 -49 15 C-57.58 15.33 -66.16 15.66 -75 16 C-72.36 18.64 -69.72 21.28 -67 24 C-64.4220188 26.5779812 -61.86279169 29.14700891 -59.375 31.8125 C-57.17037709 34.33873788 -57.17037709 34.33873788 -54 34 C-52.66018514 33.6937566 -51.32488113 33.36548445 -50 33 C-50 32.34 -50 31.68 -50 31 C-49.47792969 30.72027344 -48.95585937 30.44054687 -48.41796875 30.15234375 C-40.79466361 26.00024585 -33.53081623 21.33694973 -26.29296875 16.55078125 C-25.66350342 16.13795898 -25.03403809 15.72513672 -24.38549805 15.29980469 C-23.14739919 14.48733738 -21.91303719 13.66914107 -20.68286133 12.84472656 C-16.33716394 10 -16.33716394 10 -13 10 C-13 9.34 -13 8.68 -13 8 C-10.91796875 6.5625 -10.91796875 6.5625 -8.1875 5 C-5.39855144 3.39021728 -2.68092187 1.78728124 0 0 Z M-80 28 C-80.79397239 29.24853673 -81.58507217 30.49890043 -82.375 31.75 C-83.03628906 32.79414062 -83.03628906 32.79414062 -83.7109375 33.859375 C-86.33442623 38.12695025 -86.33442623 38.12695025 -87 43 C-87.66 43 -88.32 43 -89 43 C-95.51772426 61.55138761 -95.51772426 61.55138761 -97 81 C-94.64399002 83.19981706 -94.64399002 83.19981706 -92.78125 84.54296875 C-83.30242876 92.29647823 -78.71313256 104.21262521 -77 116 C-86.48062787 115.40746076 -93.40540969 113.34105515 -101.58007812 108.65625 C-105.33576367 106.54579375 -105.33576367 106.54579375 -109.5390625 106.109375 C-110.35117188 106.40328125 -111.16328125 106.6971875 -112 107 C-113.05832031 107.34933594 -114.11664063 107.69867188 -115.20703125 108.05859375 C-129.35065193 113.46780079 -143.1242223 121.30855752 -154 132 C-154 132.66 -154 133.32 -154 134 C-154.66 134 -155.32 134 -156 134 C-155.52794881 138.24846075 -153.11122478 140.26819288 -150 143 C-149.34 143 -148.68 143 -148 143 C-148 143.66 -148 144.32 -148 145 C-132.6372678 151.69803723 -116.48885867 154.92183563 -99.9375 157.125 C-98.2510437 157.3737085 -98.2510437 157.3737085 -96.53051758 157.62744141 C-93.60760182 157.97589215 -90.93334735 158.24646014 -88 158 C-85.1312138 155.90415292 -85.1312138 155.90415292 -84 153 C-84 152.34 -84 151.68 -84 151 C-83.34 151 -82.68 151 -82 151 C-82 150.34 -82 149.68 -82 149 C-81.34 148.773125 -80.68 148.54625 -80 148.3125 C-77.37214813 147.16281481 -75.4022153 145.92919387 -73.0625 144.3125 C-70.1685209 142.45948137 -69.30116174 141.99420843 -65.75 142.0625 C-59.4606947 144.20658135 -59.4606947 144.20658135 -57.875 146.9375 C-57.58625 147.618125 -57.2975 148.29875 -57 149 C-55.4006407 152.13273492 -55.4006407 152.13273492 -53.07421875 152.46875 C-33.81645178 152.72089752 -18.53633322 138.07086125 -5 126 C-4.19820312 125.33742188 -3.39640625 124.67484375 -2.5703125 123.9921875 C-0.73319433 122.09339189 -0.73319433 122.09339189 -1.04296875 119.484375 C-4.20068953 111.28718962 -14.71889382 104.49348267 -22 100 C-23.32 100 -24.64 100 -26 100 C-26 100.66 -26 101.32 -26 102 C-26.721875 102.2784375 -27.44375 102.556875 -28.1875 102.84375 C-30.87041693 103.94672696 -33.41947656 105.17748174 -36 106.5 C-41.32655951 109.22986175 -46.03203511 111.16726071 -52 112 C-51.83668198 108.16337999 -51.61120549 104.33276832 -51.375 100.5 C-51.32988281 99.42234375 -51.28476562 98.3446875 -51.23828125 97.234375 C-50.7325031 89.69368263 -49.05550248 85.55445639 -44 80 C-43.34 79.01 -42.68 78.02 -42 77 C-42.5657147 74.79528183 -42.5657147 74.79528183 -43.75 72.5625 C-44.11609375 71.80066406 -44.4821875 71.03882813 -44.859375 70.25390625 C-45.23578125 69.51011719 -45.6121875 68.76632813 -46 68 C-46.37640625 67.24589844 -46.7528125 66.49179688 -47.140625 65.71484375 C-47.42421875 65.14894531 -47.7078125 64.58304688 -48 64 C-48.66 64 -49.32 64 -50 64 C-50.11601562 63.41089844 -50.23203125 62.82179687 -50.3515625 62.21484375 C-53.55907373 51.25906746 -68.43846978 37.28200483 -77 30 C-77.66 30 -78.32 30 -79 30 C-79.495 29.01 -79.495 29.01 -80 28 Z M-44 49 C-44.33 49.99 -44.66 50.98 -45 52 C-43.43571011 54.57536226 -43.43571011 54.57536226 -41.25 57.25 C-34.75096117 65.84733234 -32.97957042 73.21102441 -32.4375 83.8125 C-32.39431641 84.60076172 -32.35113281 85.38902344 -32.30664062 86.20117188 C-32.20121679 88.13394215 -32.10016906 90.06695026 -32 92 C-31.01 91.34 -30.02 90.68 -29 90 C-25.5625 89.875 -25.5625 89.875 -22 90 C-20.68 90 -19.36 90 -18 90 C-17.61328125 89.16855469 -17.2265625 88.33710938 -16.828125 87.48046875 C-16.30734375 86.39378906 -15.7865625 85.30710938 -15.25 84.1875 C-14.73953125 83.10855469 -14.2290625 82.02960938 -13.703125 80.91796875 C-12 78 -12 78 -9.828125 76.6484375 C-7.57106771 74.96949922 -7.57106771 74.96949922 -7.46875 71.12109375 C-7.45185743 69.55995247 -7.46371313 67.99831091 -7.5 66.4375 C-7.51135986 65.62845215 -7.52271973 64.8194043 -7.53442383 63.98583984 C-7.78100724 56.37152732 -9.1298689 50.26876042 -14.25 44.4375 C-24.04627013 39.31672243 -35.11752684 43.73920307 -44 49 Z M-103 44 C-102 46 -102 46 -102 46 Z M-133 47 C-135.62341874 66.91427892 -135.62341874 66.91427892 -131.44580078 85.75244141 C-127.32208796 89.96799638 -122.45372558 91.97483806 -117 94 C-116.67 94.66 -116.34 95.32 -116 96 C-116.99 96.495 -116.99 96.495 -118 97 C-117.35933594 97.04898438 -116.71867187 97.09796875 -116.05859375 97.1484375 C-110.78843079 97.60398065 -106.08950567 98.50308657 -101 100 C-98.20755955 100.16928543 -98.20755955 100.16928543 -96 100 C-96.66 98.68 -97.32 97.36 -98 96 C-98.66 96 -99.32 96 -100 96 C-100.2475 95.4225 -100.495 94.845 -100.75 94.25 C-101.8918301 91.88346078 -101.8918301 91.88346078 -104.0625 90.25 C-108.4736351 85.1273915 -107.04146792 76.40051588 -106.6875 70 C-106.65205078 69.14921875 -106.61660156 68.2984375 -106.58007812 67.421875 C-106.37028222 63.33868306 -105.98129568 59.57354695 -104.89453125 55.625 C-104.04349897 52.1762753 -104.00085102 51.18744761 -105 48 C-105.33 49.65 -105.66 51.3 -106 53 C-107.44632813 52.36771484 -107.44632813 52.36771484 -108.921875 51.72265625 C-110.19784676 51.16910968 -111.47389233 50.61573319 -112.75 50.0625 C-113.38421875 49.78470703 -114.0184375 49.50691406 -114.671875 49.22070312 C-120.32356629 46.77752408 -127.02133179 44.01066589 -133 47 Z M11 99 C6.72059354 100.72997283 2.57421472 101.45109423 -2 102 C2.31660302 108.00073223 7.02033308 113.54006063 12 119 C11.09576764 121.99092243 10.2157214 124.64797113 8.578125 127.3203125 C6.87873086 130.2059174 5.72814229 133.04982026 4.5625 136.1875 C4.13066406 137.32703125 3.69882812 138.4665625 3.25390625 139.640625 C2.48147942 141.71005514 1.71675333 143.78240213 0.96484375 145.859375 C-1.0230846 151.17124832 -3.21089514 154.78988349 -7 159 C-7 159.66 -7 160.32 -7 161 C-7.53625 161.226875 -8.0725 161.45375 -8.625 161.6875 C-11.22222181 163.0252818 -11.22222181 163.0252818 -14 165.5 C-16.36107821 167.46756518 -18.21098093 168.82003039 -21 170 C-21 170.66 -21 171.32 -21 172 C-21.886875 172.226875 -22.77375 172.45375 -23.6875 172.6875 C-27.44644303 174.17689252 -29.24712197 176.09705026 -32 179 C-29.88094537 181.17277714 -27.75527122 183.33826908 -25.625 185.5 C-25.02171875 186.12003906 -24.4184375 186.74007812 -23.796875 187.37890625 C-23.21679688 187.96542969 -22.63671875 188.55195313 -22.0390625 189.15625 C-21.50490723 189.70087891 -20.97075195 190.24550781 -20.42041016 190.80664062 C-19.05397977 192.21441999 -19.05397977 192.21441999 -17 192 C-17 192.66 -17 193.32 -17 194 C-16.34 194 -15.68 194 -15 194 C-14.83886719 194.59425781 -14.67773438 195.18851562 -14.51171875 195.80078125 C-12.12562971 199.27201673 -8.71080359 199.91882132 -4.8125 201.1875 C-4.06935547 201.44724609 -3.32621094 201.70699219 -2.56054688 201.97460938 C5.33409811 204.65228476 12.84570864 205.16168814 21.125 205.125 C22.44564453 205.13080078 22.44564453 205.13080078 23.79296875 205.13671875 C27.98745282 205.13039223 31.91208826 205.06862423 36 204 C39.40834882 193.77495355 36.0323768 181.50285902 31.62109375 172.04296875 C30.47823187 169.97539811 29.30262035 167.96994634 28 166 C27.34 166 26.68 166 26 166 C25.76410156 165.4225 25.52820313 164.845 25.28515625 164.25 C21.18804192 157.07693661 12.50662266 152.7560547 5 150 C6.73778194 144.43119878 8.74422801 139.12742591 11.23046875 133.84765625 C12.12815893 132.02587219 12.12815893 132.02587219 12 130 C12.75619629 130.02094727 13.51239258 130.04189453 14.29150391 130.06347656 C17.735866 130.14690585 21.18001507 130.19874624 24.625 130.25 C25.81480469 130.28351563 27.00460937 130.31703125 28.23046875 130.3515625 C36.29002984 130.44161346 39.90319535 129.90259947 45.73046875 124.3515625 C47.50531497 122.24839353 49.26136054 120.13333997 51 118 C51.46229004 117.44860352 51.92458008 116.89720703 52.40087891 116.32910156 C53.94835899 114.48084646 55.47583919 112.61751439 57 110.75 C57.5055542 110.14752441 58.0111084 109.54504883 58.53198242 108.92431641 C60.12792728 106.99384833 60.12792728 106.99384833 62 104 C61.66197753 101.2926875 61.41122007 100.3375548 59.27734375 98.5859375 C45.18398875 91.29221454 24.3179325 89.52947022 11 99 Z M-130.70703125 103.53710938 C-137.99714254 107.74294281 -145.53316042 110.19681871 -153.52709961 112.75195312 C-174.96135982 119.20165885 -174.96135982 119.20165885 -192 133 C-193.08473618 136.63142498 -193.08473618 136.63142498 -192 140 C-186.61929482 147.97187426 -176.11371367 151.74443207 -167 154 C-164.03498274 154.53909405 -161.06543263 155.00903464 -158.0859375 155.4609375 C-153.29557686 156.29773467 -148.65975153 157.62408912 -144 159 C-144.33 158.34 -144.66 157.68 -145 157 C-145.66 157 -146.32 157 -147 157 C-147 156.34 -147 155.68 -147 155 C-148.48842315 153.72537408 -148.48842315 153.72537408 -150.4375 152.4375 C-156.93984458 147.71693668 -163.25763509 142.21060754 -167 135 C-166.8125 132.75 -166.8125 132.75 -166 131 C-165.01 130.505 -165.01 130.505 -164 130 C-164 129.34 -164 128.68 -164 128 C-163.401875 127.71125 -162.80375 127.4225 -162.1875 127.125 C-159.80672208 125.95257974 -159.80672208 125.95257974 -157 124 C-157 123.34 -157 122.68 -157 122 C-156.42185547 121.71318359 -155.84371094 121.42636719 -155.24804688 121.13085938 C-153.16116894 120.08107456 -151.09400574 119.0025258 -149.03125 117.90625 C-147.92716797 117.32037109 -147.92716797 117.32037109 -146.80078125 116.72265625 C-146.04152344 116.31917969 -145.28226563 115.91570312 -144.5 115.5 C-142.98981778 114.69747532 -141.47940845 113.89537786 -139.96875 113.09375 C-139.30294922 112.73990234 -138.63714844 112.38605469 -137.95117188 112.02148438 C-135.97938858 110.98920944 -133.99374472 109.98909298 -132 109 C-132 108.34 -132 107.68 -132 107 C-131.154375 106.773125 -130.30875 106.54625 -129.4375 106.3125 C-125.49613144 104.80761382 -122.11238141 102.87296745 -119 100 C-119 99.34 -119 98.68 -119 98 C-123.09302322 98 -127.20163365 101.47530422 -130.70703125 103.53710938 Z M-61 169 C-62.34897522 170.91228355 -63.65388603 172.85574307 -64.9375 174.8125 C-65.64777344 175.89144531 -66.35804688 176.97039062 -67.08984375 178.08203125 C-67.72019531 179.04496094 -68.35054688 180.00789062 -69 181 C-69.66 181.99 -70.32 182.98 -71 184 C-74.07229104 184.36322653 -76.86290129 184.5233921 -79.9375 184.5 C-81.24400513 184.49033203 -81.24400513 184.49033203 -82.5769043 184.48046875 C-88.38589567 184.31581296 -92.64013553 183.47851007 -97.76953125 180.640625 C-102.51617038 178.22999811 -107.49075832 176.53577438 -112.5 174.75 C-113.48137939 174.39679688 -114.46275879 174.04359375 -115.47387695 173.6796875 C-118.97365041 172.42331174 -122.47228775 171.17590408 -126 170 C-125.6596875 171.794375 -125.6596875 171.794375 -125.3125 173.625 C-125.24692475 178.936595 -127.89918648 181.43410594 -131.3125 185.125 C-138.7312729 193.45188239 -139.14005495 202.71938097 -139.83544922 213.48779297 C-140.02619567 216.39993096 -140.36164499 219.28780289 -140.6875 222.1875 C-142.50448971 242.50456692 -142.50448971 242.50456692 -137.5625 261.75 C-133.07733234 263.93788666 -128.75200087 263.09661558 -124 262 C-120.47955673 260.62243524 -117.26210524 258.90197322 -114 257 C-113.28070313 256.5978125 -112.56140625 256.195625 -111.8203125 255.78125 C-110.2033263 254.87210113 -108.59982103 253.93902539 -107 253 C-107 252.34 -107 251.68 -107 251 C-106.11006348 250.59007812 -106.11006348 250.59007812 -105.20214844 250.171875 C-101.7345321 248.32658027 -99.10862386 245.66386048 -96.25 243 C-95.64800781 242.4534375 -95.04601562 241.906875 -94.42578125 241.34375 C-92.90846118 239.93997089 -91.4490346 238.47416237 -90 237 C-90 236.34 -90 235.68 -90 235 C-89.34 235 -88.68 235 -88 235 C-88 234.34 -88 233.68 -88 233 C-87.34 233 -86.68 233 -86 233 C-72.53934621 218.99539199 -72.53934621 218.99539199 -65.8671875 202.28125 C-65.91717483 183.70853698 -65.91717483 183.70853698 -58.71484375 175.6328125 C-58.14894531 175.09398437 -57.58304687 174.55515625 -57 174 C-57.96885372 172.31503702 -58.96986723 170.64821244 -60 169 C-60.33 169 -60.66 169 -61 169 Z " fill="#262626" transform="translate(331,94)"/>
<path d="M0 0 C1.80567726 0.80252323 3.60762593 1.61631296 5.375 2.5 C5.045 3.82 4.715 5.14 4.375 6.5 C3.715 6.5 3.055 6.5 2.375 6.5 C2.375 7.16 2.375 7.82 2.375 8.5 C1.715 8.5 1.055 8.5 0.375 8.5 C0.375 9.16 0.375 9.82 0.375 10.5 C-0.615 11.49 -1.605 12.48 -2.625 13.5 C1.995 16.14 6.615 18.78 11.375 21.5 C11.375 20.84 11.375 20.18 11.375 19.5 C12.035 19.5 12.695 19.5 13.375 19.5 C13.375 18.84 13.375 18.18 13.375 17.5 C14.035 17.5 14.695 17.5 15.375 17.5 C15.375 16.84 15.375 16.18 15.375 15.5 C16.035 15.5 16.695 15.5 17.375 15.5 C17.66375 14.88125 17.9525 14.2625 18.25 13.625 C19.375 11.5 19.375 11.5 21.375 9.5 C27.09102532 9.70414376 31.59778095 11.22177051 36.83203125 13.4453125 C40.60932297 15.01193119 44.48102969 16.25844425 48.375 17.5 C47.00812778 21.48671063 45.22304907 24.38494633 42.375 27.5 C41.715 27.5 41.055 27.5 40.375 27.5 C40.14425781 28.0671875 39.91351563 28.634375 39.67578125 29.21875 C38.04164006 32.08463124 36.04190116 33.82913002 33.5625 36 C32.71042969 36.7528125 31.85835937 37.505625 30.98046875 38.28125 C23.6778169 44.5 23.6778169 44.5 21.375 44.5 C21.375 45.16 21.375 45.82 21.375 46.5 C20.84132813 46.79132813 20.30765625 47.08265625 19.7578125 47.3828125 C15.72942191 49.59912428 11.77033912 51.86954677 7.875 54.3125 C-3.26871282 61.02287816 -15.31719639 65.97431332 -27.52734375 70.37109375 C-30.48366916 71.38186784 -30.48366916 71.38186784 -32.625 72.5 C-33.22597242 75.44776973 -33.71071719 78.33750382 -34.125 81.3125 C-34.38110325 83.04433109 -34.63761394 84.77610198 -34.89453125 86.5078125 C-35.01779785 87.35762695 -35.14106445 88.20744141 -35.26806641 89.08300781 C-35.74189971 92.29159176 -36.27184228 95.48956712 -36.8125 98.6875 C-37.05033203 100.10095703 -37.05033203 100.10095703 -37.29296875 101.54296875 C-37.40253906 102.18878906 -37.51210938 102.83460938 -37.625 103.5 C-41.625 103.5 -41.625 103.5 -43.98828125 101.359375 C-44.85839844 100.41578125 -45.72851562 99.4721875 -46.625 98.5 C-48.6581399 96.55149096 -50.73718661 94.65343948 -52.8125 92.75 C-53.34552734 92.25628906 -53.87855469 91.76257813 -54.42773438 91.25390625 C-57.30580594 88.570738 -57.30580594 88.570738 -60.625 86.5 C-60.625 85.84 -60.625 85.18 -60.625 84.5 C-61.285 84.5 -61.945 84.5 -62.625 84.5 C-62.625 83.84 -62.625 83.18 -62.625 82.5 C-66.3121599 80.18000892 -69.61637213 80.17552787 -73.91015625 80.05078125 C-74.60765488 80.02904343 -75.3051535 80.0073056 -76.02378845 79.98490906 C-77.49367854 79.94111661 -78.96371086 79.90188887 -80.43383789 79.86694336 C-82.68358005 79.8125947 -84.93241698 79.74239822 -87.18164062 79.66992188 C-94.50534876 79.22837294 -94.50534876 79.22837294 -101.625 80.5 C-101.625 81.16 -101.625 81.82 -101.625 82.5 C-102.285 82.5 -102.945 82.5 -103.625 82.5 C-103.8725 83.0775 -104.12 83.655 -104.375 84.25 C-105.79183317 86.8002997 -107.50127537 88.51785701 -109.625 90.5 C-110.44720849 89.27730619 -111.25733234 88.04648216 -112.0625 86.8125 C-112.51496094 86.12800781 -112.96742188 85.44351563 -113.43359375 84.73828125 C-114.72206974 82.31763619 -115.21383567 80.19856128 -115.625 77.5 C-116.99785156 77.51740234 -116.99785156 77.51740234 -118.3984375 77.53515625 C-120.18121094 77.54869141 -120.18121094 77.54869141 -122 77.5625 C-123.18335938 77.57410156 -124.36671875 77.58570313 -125.5859375 77.59765625 C-128.625 77.5 -128.625 77.5 -130.625 76.5 C-128.12078937 70.38976294 -122.65113016 65.72271262 -118.13476562 61.03491211 C-116.96724218 59.80923925 -115.81520554 58.56861433 -114.6796875 57.31323242 C-105.26619908 46.9214527 -105.26619908 46.9214527 -99.02490234 45.92553711 C-95.46561118 46.19378269 -92.11827822 46.78090168 -88.625 47.5 C-86.75475376 47.60573553 -84.88104356 47.66543827 -83.0078125 47.66796875 C-81.70952515 47.67896606 -81.70952515 47.67896606 -80.38500977 47.69018555 C-70.2759075 47.67988256 -60.60632006 47.15302452 -50.625 45.5 C-49.44421875 45.32855469 -48.2634375 45.15710938 -47.046875 44.98046875 C-34.06295199 42.80242972 -20.01508175 38.18941309 -8.625 31.5 C-6.48480763 26.40430389 -6.09625819 20.96907532 -5.625 15.5 C-6.50800781 16.01949219 -7.39101563 16.53898437 -8.30078125 17.07421875 C-29.66874082 29.54160707 -51.4075625 36.06794216 -75.9375 38.8125 C-76.70739258 38.90104248 -77.47728516 38.98958496 -78.27050781 39.08081055 C-82.93662624 39.54362128 -87.01066335 39.34728242 -91.625 38.5 C-91.625 37.84 -91.625 37.18 -91.625 36.5 C-90.965 36.5 -90.305 36.5 -89.625 36.5 C-89.625 35.84 -89.625 35.18 -89.625 34.5 C-88.965 34.5 -88.305 34.5 -87.625 34.5 C-87.625 33.84 -87.625 33.18 -87.625 32.5 C-86.965 32.5 -86.305 32.5 -85.625 32.5 C-85.625 31.84 -85.625 31.18 -85.625 30.5 C-84.965 30.5 -84.305 30.5 -83.625 30.5 C-83.625 29.84 -83.625 29.18 -83.625 28.5 C-79.31215115 23.83291306 -75.03912482 23.78647968 -69.0625 23.4375 C-61.30856057 22.81632035 -54.07202521 21.85925041 -46.625 19.5 C-45.00464844 18.99339844 -45.00464844 18.99339844 -43.3515625 18.4765625 C-32.85824212 14.96306871 -22.54981695 10.36194284 -13.2265625 4.359375 C-4.66276227 -1.11973144 -4.66276227 -1.11973144 0 0 Z " fill="#272727" transform="translate(343.625,331.5)"/>
<path d="M0 0 C0.66 0 1.32 0 2 0 C2 0.66 2 1.32 2 2 C2.55429688 2.20496094 3.10859375 2.40992188 3.6796875 2.62109375 C6.27846119 4.16548283 7.80148257 6.07759038 9.70385742 8.39306641 C13.41449806 12.75200142 16.60994706 16.13623265 22.47265625 16.94140625 C26.33739355 17.19457432 30.19254336 17.12750513 34.06201172 17.01367188 C37.10487163 16.99220549 39.82694806 17.62752815 42.74609375 18.41015625 C45.74120866 19.19397315 48.77260003 19.72701328 51.8125 20.3125 C62.59399592 22.64520256 72.61496844 26.63527095 81 34 C81 34.66 81 35.32 81 36 C76.05836723 35.43416419 71.78674631 34.3381139 67.125 32.625 C51.81043936 27.33441097 37.11644329 26.57463933 21 27 C20.01 30.3 19.02 33.6 18 37 C13 36 13 36 11 35 C11 34.34 11 33.68 11 33 C10.2575 32.71125 9.515 32.4225 8.75 32.125 C6.43260203 31.17697356 4.22082885 30.15154089 2 29 C2 28.34 2 27.68 2 27 C-15.49502628 30.54329646 -32.38915445 37.44677878 -48 46 C-49.0415625 46.56332031 -50.083125 47.12664062 -51.15625 47.70703125 C-57.57906184 51.31563738 -63.55282468 55.40913834 -69.45751953 59.80029297 C-73.79705235 63 -73.79705235 63 -76 63 C-76 63.66 -76 64.32 -76 65 C-76.66 65 -77.32 65 -78 65 C-78 65.66 -78 66.32 -78 67 C-79.57421875 68.515625 -79.57421875 68.515625 -81.6875 70.25 C-84.35349133 72.50075728 -86.71010091 74.70049545 -88.875 77.4375 C-89.926875 78.7059375 -89.926875 78.7059375 -91 80 C-91.66 80 -92.32 80 -93 80 C-93 80.66 -93 81.32 -93 82 C-93.66 82 -94.32 82 -95 82 C-95.28053223 82.59192139 -95.56106445 83.18384277 -95.85009766 83.79370117 C-96.90216696 85.81228934 -98.02107071 87.49622263 -99.3984375 89.30078125 C-112.34489743 106.68458031 -123.51809689 126.75016217 -129.203125 147.76171875 C-129.71566431 149.53510476 -130.34861499 151.2727791 -131 153 C-131.99 153.33 -132.98 153.66 -134 154 C-139.74073533 129.01091682 -140.06201701 90.88235683 -126.8671875 68.1640625 C-123.86462039 63.48089645 -120.08490487 59.86321553 -116 56.125 C-115.30132812 55.46242187 -114.60265625 54.79984375 -113.8828125 54.1171875 C-107.58608274 48.27192139 -107.58608274 48.27192139 -103 47 C-103 46.34 -103 45.68 -103 45 C-102.030625 44.360625 -101.06125 43.72125 -100.0625 43.0625 C-96.75744775 41.28938993 -96.75744775 41.28938993 -96 38 C-95.87457409 36.25127005 -95.79875303 34.49874228 -95.75390625 32.74609375 C-95.72103516 31.72708984 -95.68816406 30.70808594 -95.65429688 29.65820312 C-95.59299078 27.50727213 -95.53571307 25.35622262 -95.48242188 23.20507812 C-95.44826172 22.18736328 -95.41410156 21.16964844 -95.37890625 20.12109375 C-95.34132202 18.72008423 -95.34132202 18.72008423 -95.30297852 17.29077148 C-95 15 -95 15 -93 13 C-88.28332233 17.03061546 -83.75281384 21.14940704 -79.4453125 25.6171875 C-78.02890223 27.10854485 -78.02890223 27.10854485 -76 28 C-76 28.66 -76 29.32 -76 30 C-71.39410029 29.43375746 -67.84400372 28.16518864 -63.6875 26.125 C-44.40898854 17.00796128 -24.9837217 15.8042969 -4 16 C-3.86722656 14.94683594 -3.73445312 13.89367187 -3.59765625 12.80859375 C-3.10835888 9.69052228 -2.48380782 7.01945689 -1.4375 4.0625 C-1.03337891 2.90427734 -1.03337891 2.90427734 -0.62109375 1.72265625 C-0.31365234 0.86994141 -0.31365234 0.86994141 0 0 Z " fill="#262626" transform="translate(249,53)"/>
<path d="M0 0 C5.70829687 0.56344031 10.26121823 2.76959456 15.375 5.1875 C22.48435293 8.49588419 29.5810991 11.51321913 37.06201172 13.88354492 C40.10860469 14.92550387 41.81183409 15.75963323 43.81640625 18.3203125 C45.0270367 21.06121179 46.00196658 23.75866904 46.875 26.625 C48.82656886 32.6631247 51.28456138 38.2730244 54 44 C54.59544908 45.31303289 55.18907607 46.62689303 55.78125 47.94140625 C63.70234728 65.38024079 73.18816237 81.55163178 87 95 C87 95.66 87 96.32 87 97 C78.00736937 95.1082238 69.40903751 92.62796304 60.75 89.5625 C59.64398438 89.18029297 58.53796875 88.79808594 57.3984375 88.40429688 C51.12276039 86.20930055 45.0200007 83.82044798 39 81 C37.948125 80.51917969 36.89625 80.03835938 35.8125 79.54296875 C29.20824018 76.36008242 23.54139404 72.80026109 18 68 C17.071875 67.21625 16.14375 66.4325 15.1875 65.625 C10.02356572 59.42827886 8.50212975 52.9085436 8 45 C7.31421875 44.88914062 6.6284375 44.77828125 5.921875 44.6640625 C2.51755296 43.89035294 -0.51707582 42.69499306 -3.75 41.375 C-4.3881665 41.1157373 -5.02633301 40.85647461 -5.68383789 40.58935547 C-7.79133471 39.73130138 -9.89582899 38.86617575 -12 38 C-13.58722822 37.34893063 -15.17446803 36.69788951 -16.76171875 36.046875 C-20.84357402 34.37042886 -24.9224603 32.68691361 -29 31 C-28 28 -28 28 -25.53149414 26.6496582 C-23.92455688 25.98196411 -23.92455688 25.98196411 -22.28515625 25.30078125 C-20.54395508 24.57084961 -20.54395508 24.57084961 -18.76757812 23.82617188 C-18.15986572 23.57794678 -17.55215332 23.32972168 -16.92602539 23.07397461 C-15.06885537 22.31509693 -13.2186805 21.54093627 -11.36914062 20.76367188 C-2.30919351 17 -2.30919351 17 0 17 C-0.12568359 15.53626953 -0.12568359 15.53626953 -0.25390625 14.04296875 C-0.35574219 12.77066406 -0.45757812 11.49835938 -0.5625 10.1875 C-0.66691406 8.92292969 -0.77132812 7.65835938 -0.87890625 6.35546875 C-1 3 -1 3 0 0 Z " fill="#242424" transform="translate(74,244)"/>
<path d="M0 0 C1.42834206 2.85668411 0.52451095 4.38697193 -0.3125 7.4375 C-2.88155339 16.84900778 -4.29664514 26.28760542 -5.0625 36 C-5.14556396 37.01674805 -5.22862793 38.03349609 -5.31420898 39.08105469 C-6.02077446 48.2323629 -6.39272628 57.3887026 -6.65844727 66.5625 C-6.87223622 73.73618552 -7.3323756 80.85409465 -8 88 C-8.6803833 88.30188232 -9.3607666 88.60376465 -10.06176758 88.91479492 C-16.59351768 91.82193713 -22.98633074 94.95773068 -29.33984375 98.23242188 C-36.93225831 102.09668865 -36.93225831 102.09668865 -41 103 C-43.30859375 102.171875 -43.30859375 102.171875 -45.4375 100.75 C-49.29074751 98.35314943 -52.593625 97.03127925 -57 96 C-55.47514897 91.78534964 -52.74376763 90.19082199 -49.0625 87.8125 C-48.00160156 87.11769531 -46.94070312 86.42289062 -45.84765625 85.70703125 C-43 84 -43 84 -40 83 C-40.03480469 82.443125 -40.06960937 81.88625 -40.10546875 81.3125 C-40.25717811 77.03574091 -40.08801469 73.67124228 -38.4375 69.6875 C-36.75726318 65.69971854 -36.75726318 65.69971854 -38 62 C-39.65888627 59.85607605 -41.33115618 57.83601265 -43.125 55.8125 C-44.12494964 54.65733235 -45.12364437 53.50107724 -46.12109375 52.34375 C-46.61077637 51.77785156 -47.10045898 51.21195313 -47.60498047 50.62890625 C-49.51705882 48.39625194 -51.36454886 46.11832731 -53.1875 43.8125 C-53.73792969 43.11769531 -54.28835937 42.42289063 -54.85546875 41.70703125 C-56 40 -56 40 -56 38 C-52.47889208 38.3094539 -48.95817076 38.62311458 -45.4375 38.9375 C-44.44685547 39.02451172 -43.45621094 39.11152344 -42.43554688 39.20117188 C-37.26236469 39.66521147 -32.13247921 40.20097448 -27 41 C-26.773125 40.195625 -26.54625 39.39125 -26.3125 38.5625 C-24.93781149 34.83120261 -23.19653842 31.58544786 -21.21875 28.1484375 C-20.07314566 26.12894267 -19.01920733 24.08560018 -18 22 C-17.34 22 -16.68 22 -16 22 C-15.75894531 21.29875 -15.51789063 20.5975 -15.26953125 19.875 C-13.78979804 16.52397341 -11.90127709 13.91697687 -9.6875 11 C-8.92824219 9.989375 -8.16898438 8.97875 -7.38671875 7.9375 C-5.05772653 5.07104803 -2.65565983 2.55695389 0 0 Z " fill="#262626" transform="translate(116,124)"/>
<path d="M0 0 C4.75826327 0.56624246 8.38631362 2.73489789 12.4375 5.125 C13.87236874 5.94893366 15.3085918 6.77051284 16.74609375 7.58984375 C17.46265137 7.99831543 18.17920898 8.40678711 18.91748047 8.82763672 C26.79134271 13.26026116 34.88751335 17.11278979 43.3125 20.375 C43.94607422 20.62596436 44.57964844 20.87692871 45.23242188 21.13549805 C50.10155825 22.94878365 54.83028986 23.61507692 60 24 C60.02493556 27.98355132 60.04297028 31.96707167 60.05493164 35.95068359 C60.06236421 37.96323241 60.07507829 39.97575949 60.08789062 41.98828125 C60.10405483 48.42163371 60.02960975 54.6439839 59 61 C56.64101323 60.47578072 54.82843083 59.90668028 52.6875 58.7421875 C49.94116922 57.6571344 49.94116922 57.6571344 47.38671875 59.34375 C46.49597656 60.0553125 45.60523438 60.766875 44.6875 61.5 C43.73359375 62.2425 42.7796875 62.985 41.796875 63.75 C40.87390625 64.4925 39.9509375 65.235 39 66 C37.4843567 67.17340126 35.96421167 68.3410364 34.4375 69.5 C33.81746094 69.9846875 33.19742188 70.469375 32.55859375 70.96875 C31 72 31 72 29 72 C29 72.66 29 73.32 29 74 C23.58823529 78 23.58823529 78 21 78 C21.53337628 70.39105405 23.35869755 63.36660117 25.43847656 56.04077148 C26.00522388 54.04409605 26.56201928 52.04484464 27.1171875 50.04492188 C29.84082825 40.3183435 29.84082825 40.3183435 31 38 C30.44828125 37.7628125 29.8965625 37.525625 29.328125 37.28125 C26.43225289 35.68754857 24.20487963 33.71082727 21.75 31.5 C20.85796875 30.7059375 19.9659375 29.911875 19.046875 29.09375 C17 27 17 27 17 25 C16.34 25 15.68 25 15 25 C15 24.34 15 23.68 15 23 C14.34 23 13.68 23 13 23 C9 17.58823529 9 17.58823529 9 15 C8.34 15 7.68 15 7 15 C6.01515892 13.25318707 5.03733813 11.5024149 4.0625 9.75 C3.51722656 8.77546875 2.97195312 7.8009375 2.41015625 6.796875 C1.23389165 4.46389591 0.47898309 2.54649238 0 0 Z " fill="#272727" transform="translate(97,321)"/>
<path d="M0 0 C1.37910486 13.72294464 1.37910486 13.72294464 -1.7578125 18.90234375 C-3.31998614 20.53600669 -4.92657288 22.12812019 -6.5703125 23.6796875 C-16.32578704 32.99600885 -23.76541652 49.2905993 -28.25 61.9375 C-29.84629676 66.23407446 -31.82899666 67.91449833 -36 70 C-37.03125 70.5775 -38.0625 71.155 -39.125 71.75 C-42 73 -42 73 -46 73 C-43.1574974 58.16568956 -36.67830704 43.94260088 -29 31 C-28.34 31 -27.68 31 -27 31 C-26.91363281 30.45214844 -26.82726562 29.90429688 -26.73828125 29.33984375 C-24.22065322 21.3606946 -16.21533085 13.95189194 -10.625 7.875 C-10.11348389 7.3188501 -9.60196777 6.7627002 -9.07495117 6.18969727 C-3.27541337 0 -3.27541337 0 0 0 Z " fill="#2E2E2E" transform="translate(173,130)"/>
<path d="M0 0 C1.35602585 0.26136553 2.70974092 0.53472143 4.0625 0.8125 C5.19365234 1.03873047 5.19365234 1.03873047 6.34765625 1.26953125 C15.22656566 3.71482736 15.22656566 3.71482736 17.10180664 6.83081055 C18.0267581 9.17431611 18.78190217 11.52267426 19.5 13.9375 C23.54791149 26.81135209 23.54791149 26.81135209 31.58032227 37.33520508 C33.50121264 39.58775047 33.34621952 40.95792649 33.29296875 43.88671875 C33.2784668 45.2934082 33.2784668 45.2934082 33.26367188 46.72851562 C33.23853516 47.70498047 33.21339844 48.68144531 33.1875 49.6875 C33.16719727 51.16959961 33.16719727 51.16959961 33.14648438 52.68164062 C33.11112203 55.12164231 33.06177033 57.56054719 33 60 C29.63251488 58.48052501 28.39159663 57.47899158 27 54 C26.34 54 25.68 54 25 54 C23.34191563 51.9508866 21.81603133 49.90901725 20.3125 47.75 C19.86551758 47.11175293 19.41853516 46.47350586 18.95800781 45.81591797 C10.42711625 33.49726157 -0.95165678 15.70233688 0 0 Z " fill="#2C2C2C" transform="translate(127,265)"/>
<path d="M0 0 C1.12475586 2.06323242 1.12475586 2.06323242 2 4 C-2.56244637 4.05813173 -7.12479724 4.09364122 -11.6875 4.125 C-12.98107422 4.14175781 -14.27464844 4.15851563 -15.60742188 4.17578125 C-16.85458984 4.18222656 -18.10175781 4.18867187 -19.38671875 4.1953125 C-20.53358154 4.20578613 -21.68044434 4.21625977 -22.86206055 4.22705078 C-26.00573351 3.99958514 -28.1405883 3.2574995 -31 2 C-33.13803054 2.07606836 -33.13803054 2.07606836 -35 3 C-35.36996094 3.474375 -35.73992187 3.94875 -36.12109375 4.4375 C-38.98936337 6.8227554 -42.36421926 7.12521068 -45.9375 7.8125 C-51.65123257 9.00291149 -56.45673765 10.48272898 -61.625 13.3125 C-65.10168039 15.18092007 -66.68211698 15.9892243 -70.6875 16.125 C-74.92990114 14.68418452 -78.97417058 12.96270595 -83 11 C-73.19938535 -0.76073758 -52.45144861 -2.27977371 -38.0078125 -3.69140625 C-26.14279423 -4.6910128 -10.95083165 -5.55042152 0 0 Z " fill="#2C2C2C" transform="translate(280,105)"/>
<path d="M0 0 C0.66 0 1.32 0 2 0 C2.57668433 18.64612657 -1.07924788 34.18603675 -7.0625 51.7890625 C-7.36285156 52.67287598 -7.66320312 53.55668945 -7.97265625 54.46728516 C-9.06976916 57.1720022 -10.43884127 59.53830034 -12 62 C-15 61 -15 61 -16.859375 57.83203125 C-17.50070661 56.49747605 -18.13048895 55.15732336 -18.75 53.8125 C-19.07871094 53.15185547 -19.40742188 52.49121094 -19.74609375 51.81054688 C-21.7488432 47.53040934 -22.58721202 44.66445982 -21 40 C-19.21484375 37.60546875 -19.21484375 37.60546875 -16.9375 35.1875 C-8.38822932 25.19519956 -3.66398192 12.51056985 0 0 Z " fill="#222222" transform="translate(427,252)"/>
<path d="M0 0 C4.35058726 1.13604328 8.12319802 1.73250763 12.625 1.5625 C12.625 2.2225 12.625 2.8825 12.625 3.5625 C10.975 3.5625 9.325 3.5625 7.625 3.5625 C8.615 5.5425 9.605 7.5225 10.625 9.5625 C9.965 10.5525 9.305 11.5425 8.625 12.5625 C10.11 13.0575 10.11 13.0575 11.625 13.5625 C8.24994799 13.17005209 5.95851747 12.77399888 3.0625 10.9375 C-0.05504623 9.17888418 -0.97325569 9.63430977 -4.375 10.5625 C-6.45372741 11.37637915 -8.51618455 12.23275562 -10.5625 13.125 C-16.16253541 15.5625 -16.16253541 15.5625 -18.375 15.5625 C-18.375 14.2425 -18.375 12.9225 -18.375 11.5625 C-19.035 11.5625 -19.695 11.5625 -20.375 11.5625 C-20.375 10.9025 -20.375 10.2425 -20.375 9.5625 C-21.035 9.2325 -21.695 8.9025 -22.375 8.5625 C-21.67632812 8.16417969 -20.97765625 7.76585937 -20.2578125 7.35546875 C-19.34773437 6.82566406 -18.43765625 6.29585937 -17.5 5.75 C-16.59507812 5.22792969 -15.69015625 4.70585937 -14.7578125 4.16796875 C-12.14226817 2.62516201 -12.14226817 2.62516201 -10.375 -0.4375 C-6.74051371 -2.07384111 -3.72893084 -0.97786648 0 0 Z " fill="#363636" transform="translate(223.375,191.4375)"/>
<path d="M0 0 C0.26554687 0.62390625 0.53109375 1.2478125 0.8046875 1.890625 C2.52020598 4.91801056 4.88328252 5.64490545 8 7 C10.2236068 5.0745356 10.2236068 5.0745356 11 2 C11.66 2.33 12.32 2.66 13 3 C11.90586171 6.39914689 10.79793202 9.7936444 9.6875 13.1875 C9.37876953 14.14720703 9.07003906 15.10691406 8.75195312 16.09570312 C7.2325146 20.71799506 5.80652834 24.96723466 3 29 C0 28 0 28 -1.859375 24.83203125 C-2.50070661 23.49747605 -3.13048895 22.15732336 -3.75 20.8125 C-4.07871094 20.15185547 -4.40742188 19.49121094 -4.74609375 18.81054688 C-6.75305842 14.52140086 -7.52340781 11.68996727 -6 7 C-4.58984375 4.8828125 -4.58984375 4.8828125 -2.9375 3.125 C-2.38964844 2.52945312 -1.84179688 1.93390625 -1.27734375 1.3203125 C-0.85582031 0.88460938 -0.43429687 0.44890625 0 0 Z " fill="#303030" transform="translate(412,285)"/>
<path d="M0 0 C0.30292969 0.78503906 0.60585937 1.57007813 0.91796875 2.37890625 C3.38866858 8.5746612 5.96987398 13.70326294 10 19 C10 19.66 10 20.32 10 21 C3.39452578 21.55045619 -1.53107254 20.91291463 -7 17 C-10.20102172 14.17399338 -12.83408435 11.74211437 -13.25 7.375 C-10.14688808 1.47908735 -6.40381822 -0.31347362 0 0 Z " fill="#2F2F2F" transform="translate(253,213)"/>
<path d="M0 0 C1.12475586 2.06323242 1.12475586 2.06323242 2 4 C-2.56244637 4.05813173 -7.12479724 4.09364122 -11.6875 4.125 C-12.98107422 4.14175781 -14.27464844 4.15851563 -15.60742188 4.17578125 C-16.85458984 4.18222656 -18.10175781 4.18867187 -19.38671875 4.1953125 C-21.10701294 4.21102295 -21.10701294 4.21102295 -22.86206055 4.22705078 C-26.00526499 3.99961904 -28.13953582 3.25292799 -31 2 C-34.08556972 2.3630082 -35.32505941 3.21670627 -38 5 C-38.33 4.01 -38.66 3.02 -39 2 C-40.65 2 -42.3 2 -44 2 C-44.33 0.35 -44.66 -1.3 -45 -3 C-31.13082526 -4.55646049 -12.93989948 -6.55857919 0 0 Z " fill="#343434" transform="translate(280,105)"/>
<path d="M0 0 C1.91796875 0.37109375 1.91796875 0.37109375 4 1 C6.30836326 4.62742798 6.27371884 7.97890923 5.58984375 12.08984375 C4.57325919 15.38196195 2.64303719 16.85253229 0 19 C-0.69996094 19.60199219 -1.39992188 20.20398438 -2.12109375 20.82421875 C-6.27249246 24.27555023 -9.37705314 26.85582188 -15 27 C-15.75 24.875 -15.75 24.875 -16 22 C-13.93122701 17.95240066 -11.27357491 15.25172295 -8 12.125 C-4.14778501 8.40215044 -2.10244649 4.90570848 0 0 Z " fill="#343434" transform="translate(284,207)"/>
<path d="M0 0 C13.95776906 1.40205476 26.85437524 5.02394342 38 14 C38.495 15.485 38.495 15.485 39 17 C34.12549192 16.43779438 29.90991083 15.38073113 25.3125 13.6875 C16.10214567 10.42632047 6.59173247 8.7430661 -3 7 C-1.125 2.25 -1.125 2.25 0 0 Z " fill="#272727" transform="translate(291,72)"/>
<path d="M0 0 C1.1725131 0.95117134 2.33787015 1.91117009 3.5 2.875 C4.1496875 3.40867188 4.799375 3.94234375 5.46875 4.4921875 C6.22671875 5.23855469 6.22671875 5.23855469 7 6 C7 6.66 7 7.32 7 8 C7.66 8 8.32 8 9 8 C13 12.47058824 13 12.47058824 13 15 C13.66 15 14.32 15 15 15 C14.67 15.99 14.34 16.98 14 18 C3.605 18.99 3.605 18.99 -7 20 C-6.01 17.03 -5.02 14.06 -4 11 C-3.19441183 8.32847682 -2.41826235 5.65072044 -1.6484375 2.96875 C-1 1 -1 1 0 0 Z " fill="#323232" transform="translate(263,186)"/>
<path d="M0 0 C2.265625 -0.328125 2.265625 -0.328125 5 0 C6.984375 2.265625 6.984375 2.265625 8.75 5.25 C9.34296875 6.22453125 9.9359375 7.1990625 10.546875 8.203125 C12.42155126 11.81137286 13.35236465 13.73735999 12.25 17.6875 C11 20 11 20 8 21 C7.01 20.67 6.02 20.34 5 20 C4.34 20.33 3.68 20.66 3 21 C2.35004703 19.58521865 1.70521278 18.16808513 1.0625 16.75 C0.70285156 15.96109375 0.34320313 15.1721875 -0.02734375 14.359375 C-0.90033279 12.24176302 -1.51338508 10.23330638 -2 8 C-1.01 7.34 -0.02 6.68 1 6 C0.67 4.02 0.34 2.04 0 0 Z " fill="#2E2E2E" transform="translate(285,150)"/>
<path d="M0 0 C1.33333333 1.33333333 2.66666667 2.66666667 4 4 C2.37660195 5.70884005 0.70680947 7.37446717 -1 9 C-1.66 9 -2.32 9 -3 9 C-3 9.99 -3 10.98 -3 12 C-6.75 13.125 -6.75 13.125 -9 12 C-7.86695008 15.39914975 -6.87481525 16.05254451 -4 18 C-4.33 18.99 -4.66 19.98 -5 21 C-13.08118081 14.55719557 -13.08118081 14.55719557 -15 10 C-14.875 7.75 -14.875 7.75 -14 6 C-13.01 5.67 -12.02 5.34 -11 5 C-11 4.34 -11 3.68 -11 3 C-7.64854173 -0.4855166 -4.65783149 -0.35153445 0 0 Z " fill="#313131" transform="translate(178,219)"/>
<path d="M0 0 C0.66 0 1.32 0 2 0 C2.3690205 19.00455581 2.3690205 19.00455581 0 27 C-3.4375 25.6875 -3.4375 25.6875 -7 24 C-8.36266457 19.91200629 -6.80803818 17.45168462 -5.1875 13.6875 C-4.6376873 12.37959262 -4.08948795 11.07100576 -3.54296875 9.76171875 C-3.27919434 9.13185059 -3.01541992 8.50198242 -2.74365234 7.85302734 C-1.70850545 5.27365607 -0.84157729 2.64788953 0 0 Z " fill="#323232" transform="translate(427,252)"/>
<path d="M0 0 C2.31 0.66 4.62 1.32 7 2 C6.81824219 2.53367188 6.63648437 3.06734375 6.44921875 3.6171875 C6.19785156 4.36226562 5.94648437 5.10734375 5.6875 5.875 C5.41292969 6.68710938 5.13835937 7.49921875 4.85546875 8.3359375 C3.72183325 11.86625444 2.77418581 15.44242615 1.84375 19.03125 C1.5653125 19.6809375 1.286875 20.330625 1 21 C0.01 21.33 -0.98 21.66 -2 22 C-2.83240569 18.22969185 -3.26647955 14.53576586 -3.5625 10.6875 C-3.64628906 9.61886719 -3.73007813 8.55023438 -3.81640625 7.44921875 C-3.87699219 6.64097656 -3.93757813 5.83273438 -4 5 C-2.68 4.34 -1.36 3.68 0 3 C0 2.01 0 1.02 0 0 Z " fill="#282828" transform="translate(117,185)"/>
<path d="M0 0 C0.66 0.33 1.32 0.66 2 1 C1 2 0 3 -1 4 C-0.34 4.66 0.32 5.32 1 6 C-1.05177237 9.85733206 -2.06701189 11.70073966 -6.3125 13.0625 C-10.73604666 12.98752463 -13.09496073 11.99236697 -17 10 C-16 7 -16 7 -12.47265625 5.140625 C-11.00746821 4.49918936 -9.53712988 3.86942102 -8.0625 3.25 C-7.32064453 2.92128906 -6.57878906 2.59257812 -5.81445312 2.25390625 C-3.90465749 1.43319625 -1.9540105 0.70903262 0 0 Z " fill="#3C3C3C" transform="translate(62,265)"/>
<path d="M0 0 C1.75390625 1.70703125 1.75390625 1.70703125 3.5625 3.8125 C4.16191406 4.49957031 4.76132813 5.18664062 5.37890625 5.89453125 C6.89648749 7.86555845 7.97902958 9.73964261 9 12 C6.95749089 11.54543566 4.9160274 11.08617174 2.875 10.625 C1.73804688 10.36976563 0.60109375 10.11453125 -0.5703125 9.8515625 C-3.78398288 9.05363523 -6.87566034 8.09209441 -10 7 C-9.505 6.21625 -9.01 5.4325 -8.5 4.625 C-6.83462035 2.21447673 -6.83462035 2.21447673 -7 0 C-3.98968256 -0.93423645 -3.13349732 -1.04449911 0 0 Z " fill="#3B3B3B" transform="translate(152,329)"/>
<path d="M0 0 C6.60318167 -0.31950879 12.98588541 -0.04684822 19 3 C19.66 4.32 20.32 5.64 21 7 C16.38 7 11.76 7 7 7 C7 6.34 7 5.68 7 5 C4.69 5 2.38 5 0 5 C0 3.35 0 1.7 0 0 Z " fill="#2A2A2A" transform="translate(261,102)"/>
<path d="M0 0 C0.66 0 1.32 0 2 0 C0.66614356 4.00156932 -1.05432783 6.05432783 -4 9 C-4.35169068 10.32860925 -4.68770276 11.66158328 -5 13 C-5.99 13.66 -6.98 14.32 -8 15 C-11.6875 14.125 -11.6875 14.125 -15 13 C-13.47697874 8.73745622 -10.6649911 7.1805009 -6.9375 4.8125 C-3.28655681 2.64432488 -3.28655681 2.64432488 0 0 Z " fill="#303030" transform="translate(74,207)"/>
<path d="M0 0 C0.33 0.66 0.66 1.32 1 2 C0.67 2.66 0.34 3.32 0 4 C0.99 4.33 1.98 4.66 3 5 C3.6875 7.0625 3.6875 7.0625 4 9 C2.1875 10.5625 2.1875 10.5625 0 12 C-0.99 11.67 -1.98 11.34 -3 11 C-3.66 11.66 -4.32 12.32 -5 13 C-5.33 12.01 -5.66 11.02 -6 10 C-7.65 10 -9.3 10 -11 10 C-11 9.34 -11 8.68 -11 8 C-10.34 8 -9.68 8 -9 8 C-9 7.34 -9 6.68 -9 6 C-7.03125 4.4921875 -7.03125 4.4921875 -4.5 2.875 C-3.6646875 2.33617187 -2.829375 1.79734375 -1.96875 1.2421875 C-0.99421875 0.62730469 -0.99421875 0.62730469 0 0 Z " fill="#202020" transform="translate(183,210)"/>
<path d="M0 0 C3.63 0 7.26 0 11 0 C11 0.66 11 1.32 11 2 C9.35 2 7.7 2 6 2 C6.99 3.98 7.98 5.96 9 8 C8.01 9.485 8.01 9.485 7 11 C7.99 11.33 8.98 11.66 10 12 C4.50847458 11.38983051 4.50847458 11.38983051 2.125 9.5625 C1 8 1 8 1 6 C0.67449498 4.33178677 0.34153937 2.66500443 0 1 C0 0.67 0 0.34 0 0 Z " fill="#3C3C3C" transform="translate(225,193)"/>
<path d="M0 0 C4.74873033 2.21528859 9.13575315 4.37726858 13 8 C13 8.66 13 9.32 13 10 C6.3227105 9.39297368 0.29872004 7.22368606 -6 5 C-5.38125 4.731875 -4.7625 4.46375 -4.125 4.1875 C-1.7004767 3.04443152 -1.7004767 3.04443152 0 0 Z " fill="#363636" transform="translate(317,79)"/>
<path d="M0 0 C3.125 -0.1875 3.125 -0.1875 6 0 C6.33 0.99 6.66 1.98 7 3 C6.67 3.66 6.34 4.32 6 5 C8.31 5 10.62 5 13 5 C13 5.66 13 6.32 13 7 C8.38 7 3.76 7 -1 7 C-1.33 5.68 -1.66 4.36 -2 3 C-1.34 2.01 -0.68 1.02 0 0 Z " fill="#272727" transform="translate(255,102)"/>
<path d="M0 0 C0.33 0 0.66 0 1 0 C1 5.28 1 10.56 1 16 C-0.32 15.34 -1.64 14.68 -3 14 C-3 13.01 -3 12.02 -3 11 C-3.66 10.34 -4.32 9.68 -5 9 C-5 8.01 -5 7.02 -5 6 C-4.01 5.67 -3.02 5.34 -2 5 C-2 4.01 -2 3.02 -2 2 C-1.34 2 -0.68 2 0 2 C0 1.34 0 0.68 0 0 Z " fill="#212121" transform="translate(158,308)"/>
<path d="M0 0 C0.66 0 1.32 0 2 0 C2 5.61 2 11.22 2 17 C-2 12 -2 12 -3 9 C-2.44140625 6.73828125 -2.44140625 6.73828125 -1.5625 4.3125 C-1.13130859 3.10013672 -1.13130859 3.10013672 -0.69140625 1.86328125 C-0.46324219 1.24839844 -0.23507812 0.63351563 0 0 Z " fill="#2E2E2E" transform="translate(427,252)"/>
<path d="M0 0 C0.99 0.33 1.98 0.66 3 1 C3.38855926 3.4568901 3.76130088 5.91441833 4.125 8.375 C4.23714844 9.07367188 4.34929687 9.77234375 4.46484375 10.4921875 C4.72816466 12.31787914 4.8718116 14.1598762 5 16 C4.34 16.66 3.68 17.32 3 18 C1.6728739 14.0186217 1.93084087 10.14954773 2 6 C0.68 6.33 -0.64 6.66 -2 7 C-2 5.02 -2 3.04 -2 1 C-1.34 0.67 -0.68 0.34 0 0 Z " fill="#252525" transform="translate(331,94)"/>
<path d="M0 0 C3.3 0.33 6.6 0.66 10 1 C8.74458443 3.51083114 7.49936512 3.87125446 5 5 C5 5.66 5 6.32 5 7 C2.36 7 -0.28 7 -3 7 C-1.125 2.25 -1.125 2.25 0 0 Z " fill="#1B1B1B" transform="translate(291,72)"/>
<path d="M0 0 C3.81538462 2.46153846 3.81538462 2.46153846 4.75 5.1875 C4.8325 5.785625 4.915 6.38375 5 7 C3.68 7.99 2.36 8.98 1 10 C1 9.34 1 8.68 1 8 C-0.32 8.99 -1.64 9.98 -3 11 C-2.25 3.375 -2.25 3.375 0 0 Z " fill="#2A2A2A" transform="translate(424,263)"/>
<path d="M0 0 C6.93 0.495 6.93 0.495 14 1 C14 1.33 14 1.66 14 2 C12.02 2 10.04 2 8 2 C8.99 2.33 9.98 2.66 11 3 C11 3.66 11 4.32 11 5 C8.69 5.66 6.38 6.32 4 7 C0 2.25 0 2.25 0 0 Z " fill="#494949" transform="translate(60,162)"/>
<path d="M0 0 C0.66 0 1.32 0 2 0 C2.35991531 4.43895554 2.35991531 4.43895554 0.9375 6.65625 C-2.03414405 8.71722894 -4.62997456 8.28541354 -8.1875 8.1875 C-9.45980469 8.16042969 -10.73210937 8.13335937 -12.04296875 8.10546875 C-13.01878906 8.07066406 -13.99460937 8.03585938 -15 8 C-15 7.67 -15 7.34 -15 7 C-11.7 6.67 -8.4 6.34 -5 6 C-4.67 4.68 -4.34 3.36 -4 2 C-2.68 2 -1.36 2 0 2 C0 1.34 0 0.68 0 0 Z " fill="#404040" transform="translate(289,71)"/>
<path d="M0 0 C0.66 0.66 1.32 1.32 2 2 C1.3503125 2.70576172 1.3503125 2.70576172 0.6875 3.42578125 C0.130625 4.04839844 -0.42625 4.67101562 -1 5.3125 C-1.556875 5.92738281 -2.11375 6.54226563 -2.6875 7.17578125 C-4.29201498 9.03131335 -4.29201498 9.03131335 -4 12 C-5.98 12 -7.96 12 -10 12 C-8.52278578 8.54798361 -6.56205999 6.35038064 -3.875 3.75 C-3.15054688 3.04359375 -2.42609375 2.3371875 -1.6796875 1.609375 C-1.12539062 1.07828125 -0.57109375 0.5471875 0 0 Z " fill="#444444" transform="translate(223,396)"/>
<path d="M0 0 C-2.55473482 2.98052395 -5.41460439 4.46340188 -9 6 C-10.32 6 -11.64 6 -13 6 C-12.67 5.01 -12.34 4.02 -12 3 C-11.34 3 -10.68 3 -10 3 C-9.67 2.01 -9.34 1.02 -9 0 C-9 0.66 -9 1.32 -9 2 C-8.34 2 -7.68 2 -7 2 C-7 1.34 -7 0.68 -7 0 C-4.3333581 -1.33332095 -2.83319697 -0.67102033 0 0 Z " fill="#494949" transform="translate(140,197)"/>
<path d="M0 0 C2.3125 0.125 2.3125 0.125 5 1 C8 5.86206897 8 5.86206897 8 9 C5.625 8.6875 5.625 8.6875 3 8 C1 5 1 5 1 2 C0.67 1.34 0.34 0.68 0 0 Z " fill="#383838" transform="translate(112,260)"/>
<path d="M0 0 C0.66 0 1.32 0 2 0 C2 0.66 2 1.32 2 2 C2.99 2.33 3.98 2.66 5 3 C4.54625 3.4125 4.0925 3.825 3.625 4.25 C1.92926194 5.90459544 1.92926194 5.90459544 1.0625 7.9375 C-0.23322697 10.45273471 -1.9432448 12.08036181 -4 14 C-3.00956295 9.16371695 -2.04301154 4.52381127 0 0 Z " fill="#555555" transform="translate(249,53)"/>
<path d="M0 0 C0.66 0.33 1.32 0.66 2 1 C2.44921875 3.984375 2.44921875 3.984375 2.6875 7.75 C2.77386719 8.98234375 2.86023438 10.2146875 2.94921875 11.484375 C2.99345669 14.54700191 2.74933154 17.04774643 2 20 C0 18 0 18 -0.125 15.828125 C-0.08375 14.97734375 -0.0425 14.1265625 0 13.25 C0.09670597 9.07955494 -0.36011648 5.89472336 -2 2 C-1.34 1.34 -0.68 0.68 0 0 Z " fill="#191919" transform="translate(154,359)"/>
<path d="M0 0 C0.7425 0.78375 1.485 1.5675 2.25 2.375 C4.54433318 4.56504531 6.12158858 5.82731386 9 7 C9 7.99 9 8.98 9 10 C7.22566188 9.06915029 5.45564851 8.13005387 3.6875 7.1875 C2.70136719 6.66542969 1.71523437 6.14335937 0.69921875 5.60546875 C-1.61665068 4.2280124 -3.23611001 3.00469409 -5 1 C-2.525 1.495 -2.525 1.495 0 2 C0 1.34 0 0.68 0 0 Z " fill="#0A0A0A" transform="translate(189,252)"/>
<path d="M0 0 C8.91 0 17.82 0 27 0 C25 2 25 2 22.80102539 2.1953125 C21.90891357 2.17210937 21.01680176 2.14890625 20.09765625 2.125 C19.12505859 2.10953125 18.15246094 2.0940625 17.15039062 2.078125 C15.09570062 2.02614043 13.04101311 1.97405748 10.98632812 1.921875 C10.01244141 1.90640625 9.03855469 1.8909375 8.03515625 1.875 C6.69529663 1.84019531 6.69529663 1.84019531 5.32836914 1.8046875 C2.72519861 1.83421768 2.72519861 1.83421768 0 4 C0 2.68 0 1.36 0 0 Z " fill="#111111" transform="translate(343,224)"/>
<path d="M0 0 C0.66 0 1.32 0 2 0 C3.125 4.75 3.125 4.75 2 7 C1.34 7 0.68 7 0 7 C-0.33 7.66 -0.66 8.32 -1 9 C-1.66 9 -2.32 9 -3 9 C-1.125 2.25 -1.125 2.25 0 0 Z " fill="#1D1D1D" transform="translate(340,232)"/>
<path d="M0 0 C5.75 0.75 5.75 0.75 8 3 C7.01 3.33 6.02 3.66 5 4 C5 3.34 5 2.68 5 2 C4.34 2 3.68 2 3 2 C3 2.66 3 3.32 3 4 C2.34 4.66 1.68 5.32 1 6 C1 6.99 1 7.98 1 9 C-0.65 8.67 -2.3 8.34 -4 8 C-3.34 7.67 -2.68 7.34 -2 7 C-0.86649466 4.98330173 -0.86649466 4.98330173 0 3 C0.66 3 1.32 3 2 3 C2 2.34 2 1.68 2 1 C1.34 0.67 0.68 0.34 0 0 Z " fill="#1C1C1C" transform="translate(213,191)"/>
<path d="M0 0 C2.875 0.25 2.875 0.25 6 1 C6.66 2.32 7.32 3.64 8 5 C3.71 4.67 -0.58 4.34 -5 4 C-5 3.67 -5 3.34 -5 3 C-3.35 3 -1.7 3 0 3 C0 2.01 0 1.02 0 0 Z " fill="#272727" transform="translate(274,104)"/>
<path d="M0 0 C-0.33 0.99 -0.66 1.98 -1 3 C1.97 3.495 1.97 3.495 5 4 C5 4.33 5 4.66 5 5 C1.04 5 -2.92 5 -7 5 C-6.67 3.35 -6.34 1.7 -6 0 C-2.25 -1.125 -2.25 -1.125 0 0 Z " fill="#616161" transform="translate(275,104)"/>
<path d="M0 0 C1.98 0 3.96 0 6 0 C6.33 1.65 6.66 3.3 7 5 C6.01 5.33 5.02 5.66 4 6 C1.8125 4.75 1.8125 4.75 0 3 C0 2.01 0 1.02 0 0 Z " fill="#212121" transform="translate(169,231)"/>
<path d="M0 0 C4.29 0.66 8.58 1.32 13 2 C12.01 2.33 11.02 2.66 10 3 C9.67 3.66 9.34 4.32 9 5 C9 4.34 9 3.68 9 3 C8.236875 3.165 7.47375 3.33 6.6875 3.5 C4 4 4 4 1 4 C0.67 2.68 0.34 1.36 0 0 Z M0 5 C2 6 2 6 2 6 Z " fill="#3A3A3A" transform="translate(329,296)"/>
<path d="M0 0 C0.33 0 0.66 0 1 0 C1 2.64 1 5.28 1 8 C1.66 8.33 2.32 8.66 3 9 C3.99 9.66 4.98 10.32 6 11 C6 11.66 6 12.32 6 13 C4.02 13 2.04 13 0 13 C0 8.71 0 4.42 0 0 Z " fill="#747474" transform="translate(279,193)"/>
<path d="M0 0 C0.99 0.33 1.98 0.66 3 1 C2.51421457 4.12290635 2.0013988 6.99580359 1 10 C0.34 10 -0.32 10 -1 10 C-1.125 2.25 -1.125 2.25 0 0 Z " fill="#404040" transform="translate(155,66)"/>
<path d="M0 0 C3 3 3 3 3.1875 5.6875 C3.125625 6.450625 3.06375 7.21375 3 8 C1.68 8.33 0.36 8.66 -1 9 C-0.67 6.03 -0.34 3.06 0 0 Z " fill="#3B3B3B" transform="translate(119,390)"/>
<path d="M0 0 C0.33 0.66 0.66 1.32 1 2 C-0.97583004 7.23013834 -3.66637965 9.72570907 -8 13 C-8.66 12.67 -9.32 12.34 -10 12 C-6.7 8.04 -3.4 4.08 0 0 Z " fill="#464646" transform="translate(256,312)"/>
<path d="M0 0 C1.98 0.495 1.98 0.495 4 1 C4 4 4 4 3 7 C2.01 7.33 1.02 7.66 0 8 C-0.79953138 4.71303767 -1.09658936 3.28976808 0 0 Z " fill="#3C3C3C" transform="translate(74,244)"/>
<path d="M0 0 C0.66 0.33 1.32 0.66 2 1 C1.67 1.66 1.34 2.32 1 3 C2.98 3 4.96 3 7 3 C7 3.66 7 4.32 7 5 C-2.41002278 5.3690205 -2.41002278 5.3690205 -7 3 C-4 1 -4 1 -2 1 C-1.34 0.67 -0.68 0.34 0 0 Z " fill="#505050" transform="translate(256,229)"/>
<path d="M0 0 C2.64 0 5.28 0 8 0 C7.071875 0.3403125 7.071875 0.3403125 6.125 0.6875 C3.38589791 2.37929835 2.94975528 3.99244161 2 7 C0.68 6.67 -0.64 6.34 -2 6 C-1.34 4.02 -0.68 2.04 0 0 Z " fill="#525252" transform="translate(251,101)"/>
<path d="M0 0 C0.99 0.495 0.99 0.495 2 1 C2.40729228 3.32156597 2.74438677 5.6568787 3 8 C2.34 8 1.68 8 1 8 C1 11.3 1 14.6 1 18 C0.67 18 0.34 18 0 18 C0 12.06 0 6.12 0 0 Z " fill="#0D0D0D" transform="translate(154,76)"/>
<path d="M0 0 C1.98 0 3.96 0 6 0 C6.33 2.64 6.66 5.28 7 8 C6.34 8 5.68 8 5 8 C4.731875 7.195625 4.46375 6.39125 4.1875 5.5625 C3.795625 4.716875 3.40375 3.87125 3 3 C2.01 2.67 1.02 2.34 0 2 C0 1.34 0 0.68 0 0 Z " fill="#1E1E1E" transform="translate(247,213)"/>
<path d="M0 0 C2.0625 0.4375 2.0625 0.4375 4 1 C4 1.99 4 2.98 4 4 C2.54077307 3.88590407 1.08259402 3.75834456 -0.375 3.625 C-1.59316406 3.52058594 -1.59316406 3.52058594 -2.8359375 3.4140625 C-5 3 -5 3 -7 1 C-5.5459375 1.0309375 -5.5459375 1.0309375 -4.0625 1.0625 C-1.12534105 1.35618499 -1.12534105 1.35618499 0 0 Z " fill="#171717" transform="translate(117,322)"/>
<path d="M0 0 C0.66 1.32 1.32 2.64 2 4 C1.04578192 5.14926266 0.08647955 6.29430541 -0.875 7.4375 C-1.40867187 8.07558594 -1.94234375 8.71367187 -2.4921875 9.37109375 C-4 11 -4 11 -6 12 C-6 10.68 -6 9.36 -6 8 C-2.78571429 5 -2.78571429 5 0 5 C0 3.35 0 1.7 0 0 Z " fill="#505050" transform="translate(414,210)"/>
<path d="M0 0 C4.67692308 1.47692308 4.67692308 1.47692308 6.3125 4.125 C6.539375 4.74375 6.76625 5.3625 7 6 C5.02 6.99 5.02 6.99 3 8 C0 2.25 0 2.25 0 0 Z " fill="#2C2C2C" transform="translate(208,184)"/>
<path d="M0 0 C2.125 0.375 2.125 0.375 4 1 C3.38125 1.061875 2.7625 1.12375 2.125 1.1875 C1.073125 1.5896875 1.073125 1.5896875 0 2 C-0.33 2.825 -0.66 3.65 -1 4.5 C-1.33 5.325 -1.66 6.15 -2 7 C-4.125 7.8125 -4.125 7.8125 -6 8 C-6 7.34 -6 6.68 -6 6 C-5.34 6 -4.68 6 -4 6 C-3.71125 5.38125 -3.4225 4.7625 -3.125 4.125 C-2 2 -2 2 0 0 Z " fill="#505050" transform="translate(350,170)"/>
<path d="M0 0 C1.4370809 -0.05422947 2.87475462 -0.09289723 4.3125 -0.125 C5.11300781 -0.14820312 5.91351563 -0.17140625 6.73828125 -0.1953125 C9 0 9 0 12 2 C12 2.66 12 3.32 12 4 C7.6822542 3.49202991 3.96697886 2.80317221 0 1 C0 0.67 0 0.34 0 0 Z " fill="#6C6C6C" transform="translate(318,85)"/>
<path d="M0 0 C0.33 0 0.66 0 1 0 C1.2226746 1.43534841 1.42761906 2.87345525 1.625 4.3125 C1.74101563 5.11300781 1.85703125 5.91351563 1.9765625 6.73828125 C2 9 2 9 0 12 C-0.99 11.67 -1.98 11.34 -3 11 C-2.01 7.37 -1.02 3.74 0 0 Z " fill="#343434" transform="translate(123,375)"/>
<path d="M0 0 C5.28 0.33 10.56 0.66 16 1 C16 1.33 16 1.66 16 2 C13.7089095 2.19441368 11.41709663 2.38033135 9.125 2.5625 C7.21074219 2.71912109 7.21074219 2.71912109 5.2578125 2.87890625 C2 3 2 3 0 2 C0 1.34 0 0.68 0 0 Z " fill="#6A6A6A" transform="translate(252,368)"/>
<path d="M0 0 C0 4.38968456 -2.12805101 5.76905739 -5 9 C-5.66 8.34 -6.32 7.68 -7 7 C-3.375 1.125 -3.375 1.125 0 0 Z " fill="#2C2C2C" transform="translate(275,222)"/>
<path d="M0 0 C0.33 0.66 0.66 1.32 1 2 C-2.09677419 8.42293907 -2.09677419 8.42293907 -5.25 10.4375 C-6.11625 10.7159375 -6.11625 10.7159375 -7 11 C-6.40716379 7.60807637 -5.23256811 5.7892243 -2.9375 3.25 C-2.38964844 2.63640625 -1.84179688 2.0228125 -1.27734375 1.390625 C-0.85582031 0.93171875 -0.43429687 0.4728125 0 0 Z " fill="#434343" transform="translate(386,206)"/>
<path d="M0 0 C0.99 0.99 1.98 1.98 3 3 C1.68 4.32 0.36 5.64 -1 7 C-1.99 6.67 -2.98 6.34 -4 6 C-2.68 4.02 -1.36 2.04 0 0 Z " fill="#353535" transform="translate(301,265)"/>
<path d="M0 0 C1.69752187 0.25245197 3.38471545 0.57645775 5.0625 0.9375 C5.98160156 1.13214844 6.90070313 1.32679688 7.84765625 1.52734375 C8.91306641 1.76130859 8.91306641 1.76130859 10 2 C10 2.66 10 3.32 10 4 C8.54077307 3.88590407 7.08259402 3.75834456 5.625 3.625 C4.40683594 3.52058594 4.40683594 3.52058594 3.1640625 3.4140625 C1 3 1 3 -1 1 C-0.67 0.67 -0.34 0.34 0 0 Z " fill="#323232" transform="translate(239,206)"/>
<path d="M0 0 C2.475 0.495 2.475 0.495 5 1 C4.34 3.31 3.68 5.62 3 8 C2.01 8 1.02 8 0 8 C0.66 7.67 1.32 7.34 2 7 C1.34 4.69 0.68 2.38 0 0 Z " fill="#454545" transform="translate(119,186)"/>
<path d="M0 0 C0.99 0.33 1.98 0.66 3 1 C2.34 3.31 1.68 5.62 1 8 C-0.65 7.67 -2.3 7.34 -4 7 C-3.34 6.21625 -2.68 5.4325 -2 4.625 C0.20201441 2.28487188 0.20201441 2.28487188 0 0 Z " fill="#070707" transform="translate(229,135)"/>
<path d="M0 0 C1 3 1 3 1 7 C-0.98 6.34 -2.96 5.68 -5 5 C-3.35 3.35 -1.7 1.7 0 0 Z " fill="#3A3A3A" transform="translate(202,111)"/>
<path d="M0 0 C1.9375 0.3125 1.9375 0.3125 4 1 C4.33 1.99 4.66 2.98 5 4 C4.67 4.66 4.34 5.32 4 6 C3.34 6 2.68 6 2 6 C2 5.34 2 4.68 2 4 C0.68 3.34 -0.64 2.68 -2 2 C-1.34 2 -0.68 2 0 2 C0 1.34 0 0.68 0 0 Z " fill="#474747" transform="translate(258,82)"/>
<path d="M0 0 C1.11375 0.1546875 1.11375 0.1546875 2.25 0.3125 C0.27 1.3025 0.27 1.3025 -1.75 2.3125 C-1.42 3.3025 -1.09 4.2925 -0.75 5.3125 C-2.73 5.3125 -4.71 5.3125 -6.75 5.3125 C-3.42692308 0.38942308 -3.42692308 0.38942308 0 0 Z " fill="#535353" transform="translate(367.75,340.6875)"/>
<path d="M0 0 C0.66 1.32 1.32 2.64 2 4 C0.68 4.99 -0.64 5.98 -2 7 C-2 6.34 -2 5.68 -2 5 C-3.32 5.99 -4.64 6.98 -6 8 C-6 6.68 -6 5.36 -6 4 C-4.02 3.67 -2.04 3.34 0 3 C0 2.01 0 1.02 0 0 Z " fill="#1A1A1A" transform="translate(427,266)"/>
<path d="M0 0 C2 2 2 2 2 6 C2.66 6.33 3.32 6.66 4 7 C3.67 7.99 3.34 8.98 3 10 C2.01 10 1.02 10 0 10 C0 6.7 0 3.4 0 0 Z " fill="#121212" transform="translate(74,252)"/>
<path d="M0 0 C0.99 0.33 1.98 0.66 3 1 C3.33 2.65 3.66 4.3 4 6 C3.01 6 2.02 6 1 6 C-0.0625 4.125 -0.0625 4.125 -1 2 C-0.67 1.34 -0.34 0.68 0 0 Z " fill="#2D2D2D" transform="translate(338,213)"/>
<path d="M0 0 C0.99 0.33 1.98 0.66 3 1 C2.34 1 1.68 1 1 1 C1.99 2.98 2.98 4.96 4 7 C3.01 7 2.02 7 1 7 C1 6.34 1 5.68 1 5 C0.01 5 -0.98 5 -2 5 C-1.34 3.35 -0.68 1.7 0 0 Z " fill="#1E1E1E" transform="translate(224,194)"/>
<path d="M0 0 C-2.17424117 2.50037734 -3.73045798 3.43628586 -7 4 C-7 2.68 -7 1.36 -7 0 C-4.3333581 -1.33332095 -2.83319697 -0.67102033 0 0 Z " fill="#3D3D3D" transform="translate(140,197)"/>
<path d="M0 0 C0.33 0 0.66 0 1 0 C1.33 1.65 1.66 3.3 2 5 C2.66 4.67 3.32 4.34 4 4 C3.25 8.75 3.25 8.75 1 11 C-0.20272819 8.59454362 -0.10071472 7.05003047 -0.0625 4.375 C-0.05347656 3.55773437 -0.04445313 2.74046875 -0.03515625 1.8984375 C-0.02355469 1.27195313 -0.01195312 0.64546875 0 0 Z " fill="#555555" transform="translate(323,157)"/>
<path d="M0 0 C0.66 0.33 1.32 0.66 2 1 C-2.75 5.875 -2.75 5.875 -5 7 C-4.60196439 4.11424181 -4.20990931 3.17810487 -1.9375 1.25 C-1.298125 0.8375 -0.65875 0.425 0 0 Z " fill="#434343" transform="translate(233,338)"/>
<path d="M0 0 C3.68754757 0.49831724 5.60490662 1.10067643 8 4 C5.69 4 3.38 4 1 4 C0.67 2.68 0.34 1.36 0 0 Z " fill="#5A5A5A" transform="translate(97,321)"/>
<path d="M0 0 C0.66 0 1.32 0 2 0 C2.20086443 3.71599191 2.1519437 4.77208445 0 8 C-0.66 8 -1.32 8 -2 8 C-1.34 5.36 -0.68 2.72 0 0 Z " fill="#545454" transform="translate(427,252)"/>
<path d="M0 0 C2.97 1.98 2.97 1.98 6 4 C5.67 4.99 5.34 5.98 5 7 C2.5 5.1875 2.5 5.1875 0 3 C0 2.01 0 1.02 0 0 Z " fill="#3A3A3A" transform="translate(168,233)"/>
<path d="M0 0 C1.65 0 3.3 0 5 0 C5 1.65 5 3.3 5 5 C3.35 4.67 1.7 4.34 0 4 C0 2.68 0 1.36 0 0 Z " fill="#161616" transform="translate(246,101)"/>
<path d="M0 0 C7.42857143 -0.14285714 7.42857143 -0.14285714 11 1 C11 1.66 11 2.32 11 3 C6.78121808 3.19622241 3.82989106 2.80230168 0 1 C0 0.67 0 0.34 0 0 Z " fill="#080808" transform="translate(278,70)"/>
<path d="M0 0 C1.32 0.66 2.64 1.32 4 2 C3.34 2 2.68 2 2 2 C2 2.66 2 3.32 2 4 C-0.5 5.625 -0.5 5.625 -3 7 C-2.38722388 4.03824877 -1.74627478 2.61941217 0 0 Z " fill="#323232" transform="translate(177,425)"/>
<path d="M0 0 C-0.33 0.99 -0.66 1.98 -1 3 C-2.65 3 -4.3 3 -6 3 C-6.33 2.34 -6.66 1.68 -7 1 C-4.53721199 -0.231394 -2.7204945 -0.07159196 0 0 Z " fill="#1F1F1F" transform="translate(156,346)"/>
<path d="M0 0 C2.78388975 1.70625501 3.85384206 2.47626739 4.75 5.6875 C4.8325 6.450625 4.915 7.21375 5 8 C4.34 8 3.68 8 3 8 C3 7.01 3 6.02 3 5 C2.34 5 1.68 5 1 5 C0.34 3.68 -0.32 2.36 -1 1 C-0.67 0.67 -0.34 0.34 0 0 Z " fill="#3A3A3A" transform="translate(403,301)"/>
<path d="M0 0 C0.33 0 0.66 0 1 0 C1.24954005 1.43410368 1.47392642 2.87260072 1.6875 4.3125 C1.87892578 5.51326172 1.87892578 5.51326172 2.07421875 6.73828125 C2 9 2 9 -1 12 C-0.67 8.04 -0.34 4.08 0 0 Z " fill="#727272" transform="translate(204,264)"/>
<path d="M0 0 C0.99 0.33 1.98 0.66 3 1 C1.37660195 2.70884005 -0.29319053 4.37446717 -2 6 C-2.66 6 -3.32 6 -4 6 C-4 5.01 -4 4.02 -4 3 C-2.1875 1.25 -2.1875 1.25 0 0 Z " fill="#1B1B1B" transform="translate(135,108)"/>
<path d="M0 0 C0.33 0 0.66 0 1 0 C1.3125 2.3125 1.3125 2.3125 1 5 C-1.3125 6.875 -1.3125 6.875 -4 8 C-4.99 7.67 -5.98 7.34 -7 7 C-6.030625 6.401875 -5.06125 5.80375 -4.0625 5.1875 C-0.76947958 3.28872491 -0.76947958 3.28872491 0 0 Z " fill="#606060" transform="translate(153,91)"/>
<path d="M0 0 C0.66 0 1.32 0 2 0 C2 0.66 2 1.32 2 2 C2.99 2.33 3.98 2.66 5 3 C4.01 3.99 3.02 4.98 2 6 C1.34 5.34 0.68 4.68 0 4 C0 2.68 0 1.36 0 0 Z " fill="#434343" transform="translate(249,53)"/>
<path d="M0 0 C1.32 1.65 2.64 3.3 4 5 C-2.75 3.25 -2.75 3.25 -5 1 C-2.525 1.495 -2.525 1.495 0 2 C0 1.34 0 0.68 0 0 Z " fill="#030303" transform="translate(189,252)"/>
<path d="M0 0 C0.99 0.33 1.98 0.66 3 1 C2.34 2.65 1.68 4.3 1 6 C0.34 6 -0.32 6 -1 6 C-1.33 4.68 -1.66 3.36 -2 2 C-1.34 2 -0.68 2 0 2 C0 1.34 0 0.68 0 0 Z " fill="#3E3E3E" transform="translate(116,201)"/>
<path d="M0 0 C2.64 0 5.28 0 8 0 C8 0.66 8 1.32 8 2 C4.67465243 3.10844919 2.37817425 2.84454356 -1 2 C-0.67 1.34 -0.34 0.68 0 0 Z " fill="#313131" transform="translate(416,177)"/>
<path d="M0 0 C0.33 0 0.66 0 1 0 C1.125 2.875 1.125 2.875 1 6 C0.34 6.66 -0.32 7.32 -1 8 C-1.66 7.67 -2.32 7.34 -3 7 C-2.67 5.68 -2.34 4.36 -2 3 C-1.34 3 -0.68 3 0 3 C0 2.01 0 1.02 0 0 Z " fill="#3F3F3F" transform="translate(146,158)"/>
<path d="M0 0 C1.60031344 3.20062687 0.03173691 5.72271806 -1 9 C-1.12375 8.360625 -1.2475 7.72125 -1.375 7.0625 C-1.684375 6.0415625 -1.684375 6.0415625 -2 5 C-2.66 4.67 -3.32 4.34 -4 4 C-2.68 2.68 -1.36 1.36 0 0 Z " fill="#565656" transform="translate(116,124)"/>
<path d="M0 0 C0.99 0.33 1.98 0.66 3 1 C1.35 2.32 -0.3 3.64 -2 5 C-2.99 4.34 -3.98 3.68 -5 3 C-2.6875 1.4375 -2.6875 1.4375 0 0 Z " fill="#545454" transform="translate(296,116)"/>
<path d="M0 0 C0.33 0 0.66 0 1 0 C1.22162329 1.62324086 1.42689803 3.248721 1.625 4.875 C1.74101562 5.77992187 1.85703125 6.68484375 1.9765625 7.6171875 C1.98429687 8.40351562 1.99203125 9.18984375 2 10 C1.34 10.66 0.68 11.32 0 12 C-1.53166168 7.91556885 -0.63081652 4.20544343 0 0 Z " fill="#545454" transform="translate(334,100)"/>
<path d="M0 0 C0.99 0.33 1.98 0.66 3 1 C0.6875 3.0625 0.6875 3.0625 -2 5 C-2.99 4.67 -3.98 4.34 -5 4 C-2.6875 1.9375 -2.6875 1.9375 0 0 Z " fill="#565656" transform="translate(144,100)"/>
<path d="M0 0 C2.475 0.99 2.475 0.99 5 2 C4.67 2.66 4.34 3.32 4 4 C1.69 3.67 -0.62 3.34 -3 3 C-2.01 2.67 -1.02 2.34 0 2 C0 1.34 0 0.68 0 0 Z " fill="#202020" transform="translate(321,82)"/>
</svg>
